<svg width="38" height="42" viewBox="0 0 38 42" fill="none" xmlns="http://www.w3.org/2000/svg">
<path opacity="0.8" d="M18 0.7341C14.6862 0.7341 12.0002 3.47002 12 6.8593V9.02864H10C8.171 8.9535 5.3638 10.1732 4.3124 13.176L2 13.1121C0.8954 13.1121 -0.000199967 14.0241 3.34906e-08 15.1538C3.34906e-08 16.2835 0.8954 17.1966 2 17.1966H4V19.2383H2C0.8954 19.2383 -0.000199967 20.1489 3.34906e-08 21.2801C3.34906e-08 22.4091 0.8954 23.3198 2 23.3218H4V25.3635H2C0.8954 25.3635 -0.000199967 26.2741 3.34906e-08 27.4053C3.34906e-08 28.5343 0.8954 29.447 2 29.447H4V31.4887H2C0.8954 31.4887 -0.000199967 32.3993 3.34906e-08 33.5305C3.34906e-08 34.6595 0.8954 35.5722 2 35.5722H4C4 38.9533 6.6862 41.6974 10 41.6974H24C27.3138 41.6974 30 38.9533 30 35.5722V33.5305L32 33.4651C35.3138 33.4651 37.9998 30.7292 38 27.3399V6.8593C38 3.47023 35.3136 0.733692 32 0.7341H18ZM32 4.81757C33.1046 4.81757 34.0002 5.72961 34 6.8593V27.2766C34 28.4057 33.1046 29.3184 32 29.3184L30 29.3817V15.1538C30 11.7709 27.3138 9.02864 24 9.02864H16V6.92321C16 5.79352 16.8954 4.88128 18 4.88148L32 4.81757Z" fill="#111111"/>
</svg>
