<svg width="24" height="24" viewBox="0 0 24 24" fill="none" xmlns="http://www.w3.org/2000/svg">
<path d="M3.5 3.5625C5.875 1.1875 8.70833 0 12 0C15.2917 0 18.1042 1.1875 20.4375 3.5625C22.8125 5.89583 24 8.70833 24 12C24 15.2917 22.8125 18.125 20.4375 20.5C18.1042 22.8333 15.2917 24 12 24C8.70833 24 5.875 22.8333 3.5 20.5C1.16667 18.125 0 15.2917 0 12C0 8.70833 1.16667 5.89583 3.5 3.5625ZM19.0625 4.9375C17.1042 2.97917 14.75 2 12 2C9.25 2 6.89583 2.97917 4.9375 4.9375C2.97917 6.89583 2 9.25 2 12C2 14.75 2.97917 17.1042 4.9375 19.0625C6.89583 21.0208 9.25 22 12 22C14.75 22 17.1042 21.0208 19.0625 19.0625C21.0208 17.1042 22 14.75 22 12C22 9.25 21.0208 6.89583 19.0625 4.9375ZM11.25 3.3125C11.4583 3.10417 11.7083 3 12 3C12.2917 3 12.5208 3.10417 12.6875 3.3125C12.8958 3.47917 13 3.70833 13 4C13 4.29167 12.8958 4.54167 12.6875 4.75C12.5208 4.91667 12.2917 5 12 5C11.7083 5 11.4583 4.91667 11.25 4.75C11.0833 4.54167 11 4.29167 11 4C11 3.70833 11.0833 3.47917 11.25 3.3125ZM5.625 5.6875C5.83333 5.47917 6.0625 5.375 6.3125 5.375C6.60417 5.375 6.85417 5.47917 7.0625 5.6875C7.27083 5.85417 7.375 6.08333 7.375 6.375C7.375 6.625 7.27083 6.85417 7.0625 7.0625C6.85417 7.27083 6.60417 7.375 6.3125 7.375C6.0625 7.375 5.83333 7.27083 5.625 7.0625C5.45833 6.85417 5.375 6.625 5.375 6.375C5.375 6.08333 5.45833 5.85417 5.625 5.6875ZM16.9375 5.625L18.375 7.0625L13.9375 11.5C13.9792 11.6667 14 11.8333 14 12C14 12.5417 13.7917 13.0208 13.375 13.4375C13 13.8125 12.5417 14 12 14C11.4583 14 10.9792 13.8125 10.5625 13.4375C10.1875 13.0208 10 12.5417 10 12C10 11.4583 10.1875 11 10.5625 10.625C10.9792 10.2083 11.4583 10 12 10C12.1667 10 12.3333 10.0208 12.5 10.0625L16.9375 5.625ZM3.25 11.3125C3.45833 11.1042 3.70833 11 4 11C4.29167 11 4.52083 11.1042 4.6875 11.3125C4.89583 11.4792 5 11.7083 5 12C5 12.2917 4.89583 12.5417 4.6875 12.75C4.52083 12.9167 4.29167 13 4 13C3.70833 13 3.45833 12.9167 3.25 12.75C3.08333 12.5417 3 12.2917 3 12C3 11.7083 3.08333 11.4792 3.25 11.3125ZM19.25 11.3125C19.4583 11.1042 19.7083 11 20 11C20.2917 11 20.5208 11.1042 20.6875 11.3125C20.8958 11.4792 21 11.7083 21 12C21 12.2917 20.8958 12.5417 20.6875 12.75C20.5208 12.9167 20.2917 13 20 13C19.7083 13 19.4583 12.9167 19.25 12.75C19.0833 12.5417 19 12.2917 19 12C19 11.7083 19.0833 11.4792 19.25 11.3125ZM5.625 16.9375C5.83333 16.7292 6.0625 16.625 6.3125 16.625C6.60417 16.625 6.85417 16.7292 7.0625 16.9375C7.27083 17.1458 7.375 17.3958 7.375 17.6875C7.375 17.9375 7.27083 18.1667 7.0625 18.375C6.85417 18.5417 6.60417 18.625 6.3125 18.625C6.0625 18.625 5.83333 18.5417 5.625 18.375C5.45833 18.1667 5.375 17.9375 5.375 17.6875C5.375 17.3958 5.45833 17.1458 5.625 16.9375ZM16.9375 16.9375C17.1458 16.7292 17.375 16.625 17.625 16.625C17.9167 16.625 18.1458 16.7292 18.3125 16.9375C18.5208 17.1458 18.625 17.3958 18.625 17.6875C18.625 17.9375 18.5208 18.1667 18.3125 18.375C18.1458 18.5417 17.9167 18.625 17.625 18.625C17.375 18.625 17.1458 18.5417 16.9375 18.375C16.7292 18.1667 16.625 17.9375 16.625 17.6875C16.625 17.3958 16.7292 17.1458 16.9375 16.9375Z" fill="white"/>
</svg>
