<svg width="47" height="46" viewBox="0 0 47 46" fill="none" xmlns="http://www.w3.org/2000/svg">
<g clip-path="url(#clip0_228_1158)">
<path d="M15.1535 24.8273V40.2486C15.1535 41.2728 15.1535 41.2869 16.1824 41.2885C19.8095 41.2979 23.4381 41.2885 27.0652 41.3057C27.4223 41.3057 27.9532 41.1115 28.0675 41.6377C28.1912 42.2109 28.2445 42.8326 27.9939 43.4011C27.9031 43.6094 27.6321 43.575 27.4254 43.575C22.8065 43.575 18.1881 43.5776 13.5702 43.5828C12.9281 43.5828 12.8655 43.2179 12.867 42.7214C12.867 39.9557 12.8435 37.1884 12.8858 34.4211C12.8968 33.6256 12.6431 33.3875 11.8553 33.4016C9.37776 33.4455 6.89864 33.4267 4.41951 33.4126C1.79787 33.4001 0 31.5912 0 28.9727C0 19.7317 0 10.4918 0 1.25287C0 0 0 0 1.25287 0H24.1178C25.2219 0 25.2141 0 25.1953 1.13542C25.1812 2.12675 25.2251 3.11966 25.1765 4.11099C25.1436 4.79694 25.3848 5.02089 26.0692 5.01463C29.3313 4.988 32.5951 5.05848 35.8541 4.98644C38.399 4.93006 40.3551 6.62927 40.2501 9.32921C40.1405 12.1701 40.2079 15.0173 40.2392 17.8613C40.247 18.5112 40.0528 18.7195 39.4013 18.707C37.9402 18.6819 37.9402 18.707 37.9386 17.2709C37.9386 14.5835 37.9386 11.896 37.9386 9.20862C37.9386 7.86335 37.4453 7.37316 36.089 7.3716C29.3032 7.3716 22.5188 7.3716 15.7298 7.3575C15.0314 7.3575 14.7542 7.51411 15.0392 8.24391C15.2318 8.7341 15.1629 9.2744 15.1629 9.79591C15.1587 14.8064 15.1556 19.8168 15.1535 24.8273ZM2.28336 16.0712V21.7092C2.28336 24.1617 2.27397 26.6142 2.29433 29.0698C2.29889 29.5178 2.4469 29.9525 2.71663 30.3101C2.98637 30.6678 3.36363 30.9296 3.79308 31.0572C4.19741 31.1761 4.62894 31.1644 5.02624 31.0238C5.42355 30.8832 5.76639 30.6209 6.00596 30.2741C6.36773 29.7886 6.43821 29.2311 6.43664 28.6438C6.43664 22.3554 6.43664 16.0676 6.43664 9.78025C6.43821 6.79684 8.23608 5.0115 11.2226 5.0115C14.5882 5.0115 17.9568 5.0115 21.3192 5.0115C23.0905 5.0115 22.8399 5.1822 22.9025 3.39842C22.9307 2.61537 22.7083 2.34914 21.8987 2.34914C15.6886 2.37942 9.47956 2.37942 3.27157 2.34914C2.4572 2.34914 2.263 2.62164 2.26927 3.38902C2.30059 7.61904 2.28336 11.8459 2.28336 16.0712ZM12.867 19.8894C12.867 16.444 12.867 13.0064 12.867 9.56569C12.867 8.22042 12.0041 7.36063 10.7434 7.38726C9.48269 7.41388 8.72313 8.30969 8.72313 9.77085C8.71687 16.054 8.71687 22.3361 8.72313 28.6172C8.72313 29.2718 8.72313 29.9249 8.46473 30.5404C8.27523 30.9961 8.43341 31.1464 8.9048 31.1386C9.9212 31.1198 10.9407 31.0932 11.954 31.1386C12.6838 31.1762 12.8936 30.9068 12.8842 30.199C12.8529 26.7645 12.8686 23.3238 12.867 19.8894Z" fill="black"/>
<path d="M43.0348 24.5876C43.0403 24.692 43.0403 24.7965 43.0348 24.9009C42.8985 26.218 43.1256 27.1576 44.5821 27.8169C46.3283 28.6 47.0769 30.3336 46.9954 32.2317C46.9061 34.3397 45.7676 35.8666 43.8491 36.7233C43.2321 36.9989 43.0348 37.3717 43.0379 37.9762C43.0379 39.1241 43.0222 40.2721 43.0379 41.4216C43.052 42.4098 42.637 43.1443 41.785 43.5937C40.8767 44.073 40.0075 43.907 39.2229 43.2931C37.9262 42.2845 36.642 41.2571 35.3547 40.2376C34.5168 39.5752 33.6821 38.9064 32.8489 38.244C32.6951 38.1029 32.5202 37.9866 32.3305 37.8994C31.8529 37.7287 31.2859 37.6536 30.8882 37.8885C30.5154 38.1093 30.86 38.601 30.9351 38.9597C31.3032 40.7482 31.6743 42.5351 32.0846 44.3126C32.2256 44.9234 32.1066 45.2131 31.4441 45.3415C29.9516 45.6328 29.9704 45.6547 29.6588 44.1434C29.2751 42.2782 28.8569 40.4224 28.4811 38.5572C28.3683 38.0028 28.1209 37.7741 27.5305 37.7882C26.2525 37.8258 24.9746 37.8102 23.6951 37.7882C22.3879 37.7887 21.1323 37.2783 20.1961 36.3661C19.2598 35.4539 18.7171 34.2119 18.6836 32.9052C18.646 31.7102 18.574 30.509 19.0892 29.3627C19.9866 27.3675 21.5558 26.3526 23.6904 26.2947C26.2713 26.2258 28.8585 26.2634 31.4379 26.2869C32.0121 26.2999 32.5705 26.0983 33.0039 25.7215C35.0326 24.0834 37.0742 22.4614 39.1289 20.8557C39.9261 20.2292 40.8109 20.0335 41.7647 20.4845C42.6636 20.912 43.0395 21.67 43.0661 22.6316C43.0661 22.8399 43.0818 23.0482 43.0833 23.258C43.0833 23.7012 43.0833 24.1444 43.0833 24.5876H43.0348ZM40.7498 32.0469C40.7498 29.1497 40.7498 26.2529 40.7498 23.3567C40.7498 23.1625 40.8516 22.8978 40.6214 22.7898C40.4429 22.7068 40.291 22.901 40.1516 23.0106C38.2096 24.5516 36.2755 26.1005 34.3304 27.6368C34.1919 27.7334 34.0793 27.8627 34.0028 28.0132C33.9263 28.1638 33.8882 28.3309 33.8919 28.4997C33.8982 30.8739 33.8982 33.2487 33.8919 35.6239C33.886 35.7805 33.9181 35.9363 33.9855 36.0778C34.0528 36.2194 34.1534 36.3425 34.2787 36.4367C36.2238 37.9715 38.1694 39.5052 40.1156 41.0379C40.2722 41.1569 40.4288 41.3981 40.6496 41.2493C40.8297 41.124 40.7467 40.8609 40.7467 40.6589C40.7509 37.7888 40.7519 34.9181 40.7498 32.0469ZM27.4788 32.0563C27.4788 32.996 27.4788 33.9357 27.4788 34.8659C27.4788 35.2684 27.6103 35.5096 28.0598 35.5049C29.0224 35.4955 29.9856 35.4955 30.9492 35.5049C31.3455 35.5049 31.5193 35.3232 31.5193 34.9395C31.5193 33.0132 31.5193 31.0875 31.5193 29.1622C31.5193 28.7315 31.3235 28.5561 30.9007 28.5608C29.9892 28.5718 29.0778 28.5781 28.1679 28.5608C27.6667 28.5483 27.46 28.7472 27.4694 29.2483C27.4897 30.1817 27.4772 31.1183 27.4788 32.0563ZM25.1093 32.0297C25.1093 31.0901 25.1093 30.1504 25.1093 29.2108C25.1093 28.9163 25.0826 28.6564 24.6974 28.5671C23.9104 28.3941 23.0869 28.5345 22.4016 28.9584C21.7163 29.3823 21.2231 30.0565 21.0265 30.8379C20.9424 31.2996 20.915 31.7697 20.945 32.238C20.9576 34.4666 22.2465 35.6458 24.4719 35.5111C24.9417 35.4814 25.1187 35.2919 25.1124 34.8424C25.0999 33.9059 25.1077 32.9678 25.1093 32.0297ZM43.0395 31.9029H43.0536C43.0536 32.5794 43.0426 33.256 43.0536 33.9388C43.0614 34.2348 43.1851 34.5167 43.5234 34.241C44.2234 33.6835 44.6713 32.9788 44.6588 32.036C44.668 31.6037 44.5678 31.1761 44.3677 30.7928C44.1676 30.4096 43.8739 30.083 43.514 29.8435C43.2008 29.6273 43.0285 29.7307 43.0269 30.1097C43.0379 30.7048 43.0395 31.3046 43.0395 31.9029Z" fill="black"/>
<path d="M26.9917 11.7347C29.1545 11.7347 31.3188 11.7519 33.4816 11.7238C34.1519 11.7238 34.4025 11.9414 34.3962 12.6274C34.3821 14.098 34.4119 14.0995 32.9617 14.0995C28.8178 14.0995 24.6734 14.0995 20.5285 14.0995C19.5152 14.0995 19.498 14.0698 19.4917 12.7762C19.4917 11.8365 19.5716 11.7394 20.5003 11.7378C22.6646 11.7316 24.8274 11.7347 26.9917 11.7347Z" fill="black"/>
<path d="M26.9963 18.5284C24.833 18.5284 22.6702 18.5284 20.5079 18.5284C19.5761 18.5284 19.4743 18.4235 19.4947 17.5073C19.4947 17.2474 19.5573 16.9874 19.551 16.7243C19.551 16.3469 19.7171 16.2325 20.0757 16.2325C24.609 16.2419 29.1423 16.2419 33.6756 16.2325C34.1721 16.2325 34.4039 16.4267 34.3835 16.9248C34.3679 17.1589 34.3679 17.3938 34.3835 17.6279C34.4509 18.3076 34.1564 18.5394 33.4783 18.5284C31.3218 18.5081 29.1575 18.5284 26.9963 18.5284Z" fill="black"/>
<path d="M26.0771 23.0372C24.1978 23.0372 22.3263 23.0169 20.4517 23.0482C19.8033 23.0591 19.4588 22.8916 19.5277 22.1837C19.5336 22.0018 19.5215 21.8198 19.4917 21.6403C19.4227 20.959 19.6733 20.627 20.4125 20.663C21.3224 20.7069 22.2355 20.6724 23.1469 20.6724C26.0118 20.6724 28.8767 20.6724 31.7416 20.6724C32.7987 20.6724 32.816 20.6975 32.8175 21.7812C32.8175 22.9965 32.7925 23.0341 31.7025 23.0341C29.8279 23.0403 27.9517 23.0372 26.0771 23.0372Z" fill="black"/>
</g>
<defs>
<clipPath id="clip0_228_1158">
<rect width="47" height="45.4903" fill="white"/>
</clipPath>
</defs>
</svg>
