<svg width="40" height="32" viewBox="0 0 40 32" fill="none" xmlns="http://www.w3.org/2000/svg">
<g opacity="0.8">
<path d="M39.5375 21.8944C38.0823 20.7665 36.9603 18.3085 34.8911 18.486C34.4451 18.5658 34.1766 18.431 33.8779 18.1284C30.8285 15.8107 28.3821 10.6114 24.241 10.6843C23.0667 10.6486 21.5798 11.2483 20.5611 10.8453C18.3184 8.2319 15.7426 5.60064 13.1269 3.41777C12.3436 2.54298 11.6539 1.29543 10.4864 0.936438C10.1064 1.01346 9.46491 0.741123 9.23913 1.1125C8.59208 1.7177 7.75643 2.41506 7.27321 3.05328C5.02919 5.10409 2.79069 7.10127 0.662313 9.34465C-1.41099 11.4477 4.78414 15.0707 5.96122 16.8808C9.26529 20.3195 12.7304 23.6027 16.062 27.018C17.9302 28.8707 19.5203 25.3468 20.9369 24.3826C22.3962 22.4569 23.0212 26.3523 25.637 25.0786C27.6635 25.1363 25.9908 27.8364 27.5836 28.7579C29.0333 29.7978 30.6289 33.1856 32.5783 31.2489C33.8724 29.2036 42.0017 23.9631 39.5375 21.8944ZM19.1624 24.2836C18.971 24.4761 18.8278 24.626 18.5607 24.362C16.6458 22.8723 15.945 25.4706 14.7459 23.8448C11.2835 20.2411 7.68622 16.7625 4.16738 13.2138C2.54288 12.3019 4.07377 11.6554 3.89204 10.3254C3.44599 9.21535 2.91596 9.02141 4.0187 8.13837C5.14071 7.42037 7.62427 3.67774 8.69946 4.14952C9.51585 4.69145 10.4135 4.69971 11.2106 4.13577C11.6139 3.8483 11.7791 3.99822 12.0366 4.25543C15.247 7.44376 18.4134 10.7009 21.6707 13.8479C20.6932 14.2413 19.3813 13.8039 18.4107 14.6099C18.781 9.68163 12.1784 7.5813 9.4828 11.566L9.51171 11.5812C6.33017 16.6181 13.467 21.904 17.3245 17.2797C17.6273 17.8216 17.7375 18.4117 18.2248 18.8051C17.7457 19.5231 17.8517 20.6207 18.8182 20.8353C20.1618 21.1585 19.8438 19.5753 20.674 19.618C21.5785 19.7266 22.6895 19.4062 23.5045 19.7968C22.3508 21.3621 20.5294 22.765 19.1624 24.2836ZM13.9048 13.5783C14.2035 14.7819 14.6289 15.7172 13.4023 16.1752C12.9328 16.5878 12.4702 15.8905 12.0421 16.2151C11.6428 16.5975 11.4253 16.4544 11.3537 15.9496C12.1798 15.537 10.7521 14.7764 11.5217 14.3376C12.3133 13.9923 12.0848 15.5604 12.9259 15.3664C14.1126 14.9799 11.5768 12.024 14.4692 12.2029C14.7652 12.273 14.9786 12.3404 15.2649 12.1121C15.5141 11.9099 15.8762 12.2001 15.7082 12.4009C15.2223 12.9511 15.8693 13.3321 15.6518 13.8465C15.2071 14.1711 15.0157 13.9332 14.8533 13.5219C14.7418 12.9676 13.8249 12.8782 13.9048 13.5783ZM27.3964 24.4582C26.1573 23.2918 26.2413 23.2588 24.7476 23.9191C24.1969 24.3221 22.7941 22.9562 22.8505 22.589C22.9882 21.8916 23.8404 21.4652 24.3649 20.8958C25.586 20.9934 26.4299 23.8874 28.1178 21.7967C28.7166 21.1461 27.7984 20.2411 27.183 20.8697C26.5222 21.5079 25.6686 19.7693 25.0932 19.4172C23.404 16.8946 19.4941 19.7198 18.653 16.9771C18.5153 13.5481 26.8278 16.7213 26.7452 14.3362C25.743 12.881 23.7165 15.255 22.0011 12.295C24.1708 11.826 26.2689 11.6485 27.7006 13.8562C29.4536 15.5929 31.2075 17.3292 32.9624 19.065C33.5764 19.772 30.1484 22.0746 29.6321 22.9163C29.1104 23.5078 28.5198 24.0332 27.9567 24.5669C27.6607 25.102 27.5726 24.5697 27.3991 24.4582H27.3964ZM38.4567 23.5257C36.3917 25.6205 34.2922 27.6906 32.2355 29.7895C30.9152 31.6904 29.5881 28.4388 28.3959 27.6782C26.6061 26.2711 33.3616 21.6757 34.3156 20.1434C34.8663 19.6056 35.3702 19.6276 35.9319 20.1764C36.4482 21.0457 39.2883 22.611 38.4595 23.5257H38.4567Z" fill="#070809"/>
<path d="M12.1242 21.1546C12.1531 21.1725 12.1841 21.1868 12.2164 21.1973C12.1879 21.1786 12.1568 21.1642 12.1242 21.1546Z" fill="#070809"/>
<path d="M17.5452 23.7625C17.5659 23.771 17.5884 23.7743 17.6107 23.7722C17.633 23.77 17.6545 23.7624 17.6732 23.7501C17.581 23.7501 17.4874 23.7501 17.3979 23.7391L17.5452 23.7625Z" fill="#070809"/>
<path d="M9.25623 8.99962C9.55911 7.20189 6.53451 7.23903 6.94201 9.02713C7.02151 9.27306 7.17771 9.4871 7.38775 9.63794C7.59778 9.78878 7.85062 9.86849 8.10927 9.86542C8.36792 9.86234 8.61879 9.77664 8.82517 9.62085C9.03155 9.46506 9.18261 9.24737 9.25623 8.99962Z" fill="#070809"/>
<path d="M35.1083 21.2399C33.9684 21.1931 34.0262 23.083 35.1688 22.951C36.3019 22.9909 36.233 21.1202 35.1083 21.2399Z" fill="#070809"/>
</g>
</svg>
