<svg width="48" height="48" viewBox="0 0 48 48" fill="none" xmlns="http://www.w3.org/2000/svg">
<path d="M7.99658 5.98154C6.89198 5.98154 5.99658 6.87754 5.99658 7.98154V33.9815C5.99658 38.3995 9.57838 41.9815 13.9966 41.9815H39.9966C41.1006 41.9815 41.9966 41.0855 41.9966 39.9815C41.9966 38.8775 41.1006 37.9815 39.9966 37.9815H13.9966C11.7874 37.9815 9.99658 36.1915 9.99658 33.9815V7.98154C9.99658 6.87754 9.10118 5.98154 7.99658 5.98154ZM27.9966 9.98154V13.9815H35.1206L29.5586 19.5435C29.3786 19.7255 28.8166 19.9815 28.5586 19.9815H25.4346C24.1166 19.9815 22.4906 20.6115 21.5586 21.5435L14.559 28.5435C13.778 29.3255 13.778 30.6375 14.559 31.4195C14.9496 31.8095 15.4848 31.9815 15.9966 31.9815C16.5084 31.9815 17.0436 31.8095 17.4342 31.4195L24.4346 24.4195C24.6146 24.2375 25.1766 23.9815 25.4346 23.9815H28.5586C29.8766 23.9815 31.5026 23.3515 32.4346 22.4195L37.9966 16.8575V23.9815H41.9966V11.9815C41.9966 10.8775 41.1006 9.98154 39.9966 9.98154H27.9966Z" fill="#111111"/>
</svg>
