<svg width="41" height="52" viewBox="0 0 41 52" fill="none" xmlns="http://www.w3.org/2000/svg">
<g opacity="0.8" filter="url(#filter0_d_200_466)">
<path d="M36.5477 36.2688C36.175 35.839 35.9042 35.4093 35.5117 35.0667C34.7663 34.4246 33.9228 34.0378 32.9216 34.0378C24.3302 34.0378 15.7384 34.0378 7.14615 34.0378C6.75151 34.0311 6.35901 34.0964 5.98838 34.2306C5.57347 34.3878 5.40949 34.3411 5.5275 33.8475C5.9446 32.1165 6.22659 30.3563 6.37099 28.5826C6.51136 26.7875 6.42689 25.0219 5.85918 23.3029C5.04924 20.8731 4.68774 18.3695 4.46662 15.839C4.24318 13.4971 4.16353 11.1439 4.22811 8.79247C4.30761 6.56642 4.37345 4.33668 4.67905 2.12537C4.85048 0.891402 5.75856 0.0761253 7.03311 0.00859479C7.34243 -0.00736696 7.65423 0.00859479 7.96479 0.00859479C15.9351 0.00286493 23.9057 0 31.8768 0C33.5713 0 34.734 1.19713 34.5154 2.70122C34.4272 3.30777 34.329 3.91308 34.2421 4.52086C33.7002 8.29002 33.5246 12.1018 33.7179 15.904C33.8043 17.8293 34.2302 19.7249 34.9763 21.5054C36.3949 24.85 37.0098 28.3653 36.9999 31.9824C36.9999 33.2103 36.8583 34.4307 36.7725 35.6536C36.778 35.7658 36.761 35.8779 36.7224 35.9834C36.6838 36.089 36.6244 36.186 36.5477 36.2688ZM15.0891 9.82261C15.1177 10.3137 15.3847 10.5139 15.7773 10.5397C16.4506 10.5851 16.8879 10.908 17.1438 11.5219C17.3562 12.0413 17.7363 12.1137 18.1922 11.8289C18.7388 11.4888 19.2593 11.479 19.8072 11.8289C20.2879 12.1383 20.6767 12.0106 20.8954 11.4728C21.1339 10.8724 21.5811 10.5949 22.2184 10.536C22.7451 10.4869 22.9985 10.1996 22.873 9.6544C22.7339 9.04786 22.8519 8.53217 23.3699 8.11962C23.8196 7.76109 23.8134 7.3424 23.3699 6.98511C22.8544 6.5701 22.7364 6.05687 22.873 5.4491C22.9972 4.92113 22.796 4.60558 22.2382 4.56138C21.5749 4.50981 21.1202 4.19303 20.8718 3.57912C20.678 3.10517 20.3127 2.9652 19.878 3.23164C19.2854 3.59999 18.7339 3.59999 18.1388 3.23164C17.7413 2.98608 17.3574 3.05238 17.1636 3.50667C16.8767 4.18443 16.3798 4.51595 15.6493 4.57857C15.2257 4.61417 15.0071 4.88798 15.1115 5.30544C15.2891 6.01635 15.1574 6.59834 14.5599 7.0686C14.2692 7.29943 14.1673 7.65673 14.4618 7.92808C15.0642 8.47201 15.4034 9.07119 15.0891 9.82261ZM12.1996 23.7216C11.33 23.7216 11.0182 23.8984 11.0195 24.3748C11.0207 24.8512 11.3474 25.0305 12.2046 25.0305C17.8974 25.0305 23.5902 25.0305 29.283 25.0305C29.5098 25.0412 29.7371 25.0251 29.9601 24.9826C30.2843 24.904 30.4209 24.6548 30.4122 24.3343C30.4035 24.0138 30.2358 23.7891 29.8967 23.7474C29.6705 23.7261 29.4431 23.7183 29.2159 23.7241L12.1996 23.7216ZM27.6867 20.1364C28.1513 20.1364 28.6458 20.1523 28.6805 19.504C28.7079 19.024 28.4147 18.8385 27.6607 18.8312H10.4766C10.2692 18.8236 10.0615 18.8322 9.8555 18.857C9.49649 18.911 9.31636 19.1345 9.32133 19.4954C9.3263 19.8564 9.51885 20.0701 9.87786 20.1094C10.1041 20.1313 10.3314 20.1391 10.5586 20.1327L27.6867 20.1364ZM12.0332 28.6292C11.6058 28.6292 11.222 28.7029 11.212 29.2358C11.2009 29.7478 11.5748 29.873 11.9934 29.9258C12.1173 29.9365 12.2418 29.9398 12.3661 29.9356C18.0804 29.9356 23.7923 29.9356 29.5017 29.9356C29.7075 29.9388 29.9131 29.9182 30.1141 29.8743C30.4247 29.7969 30.6383 29.5931 30.6197 29.2603C30.62 29.1041 30.5601 28.9536 30.452 28.8396C30.344 28.7255 30.1961 28.6564 30.0383 28.6464C29.8318 28.6282 29.6244 28.6216 29.4172 28.6268L12.0332 28.6292ZM23.2258 14.1409C23.442 14.0598 23.7227 14.3177 23.8643 14.1004C24.006 13.883 23.76 13.6485 23.6643 13.4337C23.5128 13.0972 23.3463 12.7669 23.1674 12.4514C22.919 12.0217 22.6159 11.9922 22.2979 12.3777C22.0917 12.6307 21.9438 12.9278 21.6767 13.139C20.9202 13.7443 20.9177 13.7529 21.3836 14.6345C21.4817 14.8236 21.5078 15.1256 21.7774 15.1256C22.0035 15.1256 22.0594 14.8481 22.15 14.6738C22.3736 14.2096 22.6668 13.9223 23.2258 14.1323V14.1409ZM14.976 14.109C15.105 14.0647 15.2455 14.0661 15.3735 14.1129C15.5016 14.1597 15.6092 14.249 15.6779 14.3656C16.299 15.2582 16.3115 15.2521 16.8034 14.2784C16.868 14.1556 16.9276 14.0206 16.9922 13.8929C17.0779 13.7259 17.0854 13.5687 16.8928 13.4779C16.3674 13.2323 16.0233 12.8185 15.6978 12.3556C15.4208 11.9603 15.0866 12.0192 14.8406 12.4538C14.6958 12.7019 14.5668 12.9586 14.4543 13.2225C14.3301 13.5135 13.9736 13.8094 14.1698 14.0967C14.3177 14.3177 14.704 14.0525 14.976 14.1004V14.109Z" fill="#111111"/>
<path d="M18.1711 43.9808H7.98467C5.8244 43.9808 4.65544 43.0685 4.16848 40.975C3.81444 39.4501 4.00078 38.0012 4.8952 36.6862C5.49769 35.7961 6.32751 35.3356 7.45423 35.3356C14.6382 35.3516 21.8221 35.343 29.0048 35.3467C29.2246 35.3467 29.5228 35.2435 29.647 35.4412C29.7861 35.6635 29.4992 35.8317 29.3911 36.0159C27.9588 38.4715 27.9489 40.9026 29.4371 43.3349C29.5377 43.5007 29.7936 43.6394 29.6756 43.8568C29.5576 44.0741 29.3029 43.9795 29.1029 43.9795C25.4598 43.9828 21.8159 43.9832 18.1711 43.9808Z" fill="#111111"/>
<path d="M36.0508 40.0763C36.0146 41.1694 35.5856 42.2141 34.8408 43.0231C33.6321 44.3123 32.0371 44.2889 30.8358 42.9887C29.2209 41.2439 29.2805 37.9067 30.9476 36.2246C32.1899 34.9661 33.9477 35.0766 35.0322 36.4812C35.7129 37.3542 36.057 38.442 36.0508 40.0763Z" fill="#111111"/>
<path d="M18.9761 9.73667C17.7686 9.72316 16.7487 8.69915 16.7761 7.52658C16.7781 7.09074 16.911 6.66531 17.158 6.30423C17.4049 5.94316 17.7548 5.66272 18.1633 5.49849C18.5717 5.33425 19.0203 5.29361 19.4522 5.38172C19.8841 5.46984 20.2797 5.68273 20.589 5.99342C20.8982 6.3041 21.1072 6.69856 21.1893 7.12678C21.2714 7.555 21.223 7.99768 21.0503 8.39867C20.8775 8.79966 20.5881 9.14091 20.2188 9.37912C19.8496 9.61733 19.417 9.74177 18.9761 9.73667Z" fill="#111111"/>
</g>
<defs>
<filter id="filter0_d_200_466" x="0" y="0" width="41" height="52" filterUnits="userSpaceOnUse" color-interpolation-filters="sRGB">
<feFlood flood-opacity="0" result="BackgroundImageFix"/>
<feColorMatrix in="SourceAlpha" type="matrix" values="0 0 0 0 0 0 0 0 0 0 0 0 0 0 0 0 0 0 127 0" result="hardAlpha"/>
<feOffset dy="4"/>
<feGaussianBlur stdDeviation="2"/>
<feComposite in2="hardAlpha" operator="out"/>
<feColorMatrix type="matrix" values="0 0 0 0 0 0 0 0 0 0 0 0 0 0 0 0 0 0 0.25 0"/>
<feBlend mode="normal" in2="BackgroundImageFix" result="effect1_dropShadow_200_466"/>
<feBlend mode="normal" in="SourceGraphic" in2="effect1_dropShadow_200_466" result="shape"/>
</filter>
</defs>
</svg>
