<svg width="24" height="24" viewBox="0 0 24 24" fill="none" xmlns="http://www.w3.org/2000/svg">
<path d="M19.2555 12.6614C19.1048 12.4898 19.0216 12.2692 19.0216 12.0408C19.0216 11.8123 19.1048 11.5917 19.2555 11.4201L20.4592 10.0659C20.5919 9.91799 20.6743 9.73183 20.6945 9.53416C20.7148 9.33649 20.6719 9.13748 20.5721 8.96569L18.6913 5.71192C18.5925 5.54032 18.442 5.4043 18.2613 5.32325C18.0806 5.24219 17.879 5.22025 17.6851 5.26054L15.9171 5.61789C15.6922 5.66437 15.458 5.6269 15.2588 5.51256C15.0595 5.39822 14.909 5.21491 14.8357 4.99723L14.2621 3.27631C14.199 3.08952 14.0788 2.92729 13.9185 2.81254C13.7581 2.69779 13.5658 2.63633 13.3687 2.63684H9.6071C9.40204 2.62613 9.1991 2.68285 9.02929 2.79832C8.85949 2.91379 8.73214 3.08166 8.66671 3.27631L8.14009 4.99723C8.06674 5.21491 7.91625 5.39822 7.71702 5.51256C7.51779 5.6269 7.2836 5.66437 7.05864 5.61789L5.24368 5.26054C5.05988 5.23456 4.8725 5.26357 4.70516 5.34389C4.53781 5.42422 4.39798 5.55227 4.30329 5.71192L2.4225 8.96569C2.32015 9.13557 2.27412 9.33346 2.29101 9.53107C2.3079 9.72869 2.38684 9.9159 2.51654 10.0659L3.71084 11.4201C3.8616 11.5917 3.94475 11.8123 3.94475 12.0408C3.94475 12.2692 3.8616 12.4898 3.71084 12.6614L2.51654 14.0156C2.38684 14.1656 2.3079 14.3529 2.29101 14.5505C2.27412 14.7481 2.32015 14.946 2.4225 15.1159L4.30329 18.3696C4.40212 18.5412 4.5526 18.6772 4.73328 18.7583C4.91396 18.8394 5.11562 18.8613 5.30951 18.821L7.07745 18.4637C7.3024 18.4172 7.5366 18.4546 7.73583 18.569C7.93506 18.6833 8.08555 18.8666 8.1589 19.0843L8.73254 20.8052C8.79797 20.9999 8.92531 21.1678 9.09512 21.2832C9.26493 21.3987 9.46786 21.4554 9.67293 21.4447H13.4345C13.6317 21.4452 13.824 21.3838 13.9843 21.269C14.1446 21.1543 14.2648 20.992 14.3279 20.8052L14.9015 19.0843C14.9749 18.8666 15.1254 18.6833 15.3246 18.569C15.5238 18.4546 15.758 18.4172 15.983 18.4637L17.7509 18.821C17.9448 18.8613 18.1465 18.8394 18.3271 18.7583C18.5078 18.6772 18.6583 18.5412 18.7571 18.3696L20.6379 15.1159C20.7378 14.9441 20.7806 14.7451 20.7604 14.5474C20.7401 14.3497 20.6577 14.1636 20.5251 14.0156L19.2555 12.6614ZM17.8544 13.9216L18.6067 14.7679L17.403 16.8556L16.2933 16.6299C15.616 16.4914 14.9115 16.6065 14.3134 16.9532C13.7153 17.2999 13.2654 17.8541 13.0489 18.5107L12.6916 19.5639H10.2842L9.94565 18.4919C9.72922 17.8353 9.27927 17.2811 8.6812 16.9344C8.08313 16.5877 7.37858 16.4726 6.70129 16.6111L5.59162 16.8368L4.36911 14.7585L5.12143 13.9122C5.58406 13.3949 5.83982 12.7253 5.83982 12.0314C5.83982 11.3374 5.58406 10.6678 5.12143 10.1506L4.36911 9.30423L5.57282 7.23536L6.68248 7.46106C7.35977 7.5995 8.06432 7.48445 8.66239 7.13775C9.26046 6.79104 9.71041 6.23681 9.92684 5.58027L10.2842 4.51763H12.6916L13.0489 5.58967C13.2654 6.24622 13.7153 6.80045 14.3134 7.14715C14.9115 7.49386 15.616 7.60891 16.2933 7.47046L17.403 7.24477L18.6067 9.33244L17.8544 10.1788C17.3969 10.6948 17.1443 11.3606 17.1443 12.0502C17.1443 12.7398 17.3969 13.4055 17.8544 13.9216V13.9216ZM11.4879 8.2792C10.7439 8.2792 10.0167 8.49981 9.39807 8.91314C8.77948 9.32647 8.29735 9.91394 8.01265 10.6013C7.72795 11.2886 7.65345 12.0449 7.79859 12.7746C7.94374 13.5043 8.30199 14.1745 8.82806 14.7006C9.35412 15.2267 10.0244 15.5849 10.754 15.7301C11.4837 15.8752 12.24 15.8007 12.9274 15.516C13.6147 15.2313 14.2022 14.7492 14.6155 14.1306C15.0289 13.512 15.2495 12.7847 15.2495 12.0408C15.2495 11.0431 14.8532 10.0864 14.1477 9.38094C13.4423 8.67551 12.4855 8.2792 11.4879 8.2792V8.2792ZM11.4879 13.9216C11.1159 13.9216 10.7523 13.8113 10.443 13.6046C10.1337 13.3979 9.89262 13.1042 9.75027 12.7605C9.60792 12.4169 9.57067 12.0387 9.64324 11.6739C9.71581 11.309 9.89494 10.9739 10.158 10.7109C10.421 10.4478 10.7561 10.2687 11.121 10.1961C11.4858 10.1236 11.864 10.1608 12.2076 10.3032C12.5513 10.4455 12.845 10.6866 13.0517 10.9959C13.2584 11.3052 13.3687 11.6688 13.3687 12.0408C13.3687 12.5396 13.1705 13.018 12.8178 13.3707C12.4651 13.7234 11.9867 13.9216 11.4879 13.9216Z" fill="#111111"/>
</svg>
