<svg width="24" height="24" viewBox="0 0 24 24" fill="none" xmlns="http://www.w3.org/2000/svg">
<path d="M12.3814 12.9812L10.2185 15.1347C10.1303 15.2221 10.0604 15.3261 10.0126 15.4407C9.96488 15.5553 9.9403 15.6782 9.9403 15.8024C9.9403 15.9265 9.96488 16.0494 10.0126 16.164C10.0604 16.2786 10.1303 16.3826 10.2185 16.47C10.3059 16.5582 10.4099 16.6281 10.5245 16.6759C10.6391 16.7236 10.762 16.7482 10.8861 16.7482C11.0103 16.7482 11.1332 16.7236 11.2478 16.6759C11.3624 16.6281 11.4664 16.5582 11.5538 16.47L15.3154 12.7085C15.401 12.619 15.4681 12.5136 15.5129 12.3981C15.6069 12.1692 15.6069 11.9124 15.5129 11.6834C15.4681 11.568 15.401 11.4625 15.3154 11.3731L11.5538 7.61152C11.4661 7.52384 11.3621 7.45429 11.2475 7.40684C11.1329 7.35939 11.0101 7.33496 10.8861 7.33496C10.7621 7.33496 10.6394 7.35939 10.5248 7.40684C10.4102 7.45429 10.3062 7.52384 10.2185 7.61152C10.1308 7.69921 10.0612 7.8033 10.0138 7.91786C9.96633 8.03242 9.94191 8.1552 9.94191 8.2792C9.94191 8.4032 9.96633 8.52599 10.0138 8.64055C10.0612 8.75511 10.1308 8.8592 10.2185 8.94688L12.3814 11.1004H3.363C3.11359 11.1004 2.8744 11.1995 2.69804 11.3758C2.52168 11.5522 2.42261 11.7914 2.42261 12.0408C2.42261 12.2902 2.52168 12.5294 2.69804 12.7057C2.8744 12.8821 3.11359 12.9812 3.363 12.9812H12.3814ZM11.8265 2.63684C10.069 2.629 8.3445 3.11382 6.84854 4.03633C5.35258 4.95883 4.14508 6.2821 3.363 7.85603C3.25077 8.08049 3.2323 8.34035 3.31166 8.57844C3.39102 8.81652 3.56171 9.01332 3.78618 9.12556C4.01065 9.23779 4.2705 9.25626 4.50859 9.1769C4.74667 9.09754 4.94348 8.92685 5.05571 8.70238C5.65022 7.5018 6.55454 6.48175 7.67522 5.74765C8.7959 5.01355 10.0923 4.59203 11.4304 4.52665C12.7685 4.46127 14.0998 4.7544 15.2867 5.37575C16.4736 5.9971 17.4731 6.92412 18.1818 8.06103C18.8905 9.19793 19.2828 10.5035 19.3181 11.8427C19.3534 13.182 19.0304 14.5063 18.3825 15.679C17.7346 16.8516 16.7854 17.83 15.6328 18.513C14.4803 19.1959 13.1662 19.5588 11.8265 19.5639C10.4243 19.57 9.04876 19.1806 7.85779 18.4404C6.66682 17.7002 5.70868 16.6392 5.09333 15.3792C4.98109 15.1547 4.78429 14.984 4.5462 14.9047C4.30812 14.8253 4.04826 14.8438 3.82379 14.956C3.59933 15.0682 3.42864 15.265 3.34928 15.5031C3.26992 15.7412 3.28838 16.0011 3.40062 16.2255C4.14619 17.7259 5.27907 18.9999 6.68209 19.9157C8.08511 20.8314 9.70732 21.3557 11.3809 21.4344C13.0545 21.513 14.7187 21.143 16.2014 20.3628C17.6841 19.5826 18.9314 18.4204 19.8143 16.9965C20.6972 15.5726 21.1837 13.9386 21.2234 12.2637C21.2631 10.5887 20.8546 8.93352 20.0402 7.46937C19.2257 6.00521 18.0349 4.78523 16.5908 3.93563C15.1468 3.08602 13.502 2.63763 11.8265 2.63684V2.63684Z" fill="#111111"/>
</svg>
