<svg width="246" height="47" viewBox="0 0 246 47" fill="none" xmlns="http://www.w3.org/2000/svg">
<path fill-rule="evenodd" clip-rule="evenodd" d="M12.1316 7.01572H50.0605C50.1329 7.01658 50.2022 7.04598 50.2531 7.09754C50.304 7.14909 50.3326 7.21866 50.3326 7.29114C50.3319 7.35814 50.3061 7.42245 50.2605 7.47147L48.6375 9.27152C47.998 9.97872 47.2174 10.544 46.346 10.9309C45.4746 11.3177 44.5317 11.5175 43.5783 11.5175H18.5941C17.6407 11.5171 16.698 11.3171 15.8266 10.9303C14.9553 10.5435 14.1746 9.9784 13.5349 9.27152L11.8955 7.47147C11.8589 7.42982 11.8357 7.37808 11.8289 7.32302C11.8222 7.26796 11.8323 7.21215 11.8578 7.1629C11.8833 7.11365 11.9231 7.07325 11.9719 7.04699C12.0208 7.02072 12.0764 7.00983 12.1316 7.01572Z" fill="#DA121A"/>
<path fill-rule="evenodd" clip-rule="evenodd" d="M12.1316 37.0919H50.0867C50.1394 37.0918 50.191 37.0763 50.2351 37.0474C50.2791 37.0185 50.3139 36.9774 50.3351 36.9292C50.3563 36.8809 50.363 36.8275 50.3544 36.7755C50.3458 36.7235 50.3223 36.6751 50.2867 36.6362L48.6473 34.8394C48.0107 34.1338 47.2334 33.5691 46.3655 33.1817C45.4976 32.7944 44.5583 32.5929 43.6079 32.5902H18.6203C17.6666 32.5903 16.7236 32.7906 15.8521 33.178C14.9806 33.5655 14.2002 34.1315 13.5612 34.8394L11.9218 36.6362C11.8875 36.6758 11.8652 36.7243 11.8575 36.7762C11.8498 36.828 11.857 36.8809 11.8784 36.9288C11.8997 36.9766 11.9343 37.0174 11.978 37.0463C12.0217 37.0752 12.0727 37.091 12.1251 37.0919H12.1316Z" fill="#F5A623"/>
<path fill-rule="evenodd" clip-rule="evenodd" d="M50.8507 35.6624L50.9688 8.37313C50.9692 8.3374 50.9626 8.30192 50.9493 8.26874C50.936 8.23556 50.9163 8.20531 50.8914 8.17974C50.8664 8.15416 50.8366 8.13375 50.8038 8.11968C50.7709 8.10561 50.7356 8.09815 50.6999 8.09772C50.6309 8.09838 50.5645 8.124 50.513 8.16985L48.6998 9.80924C47.9978 10.4437 47.4355 11.2174 47.0488 12.0811C46.6622 12.9448 46.4595 13.8795 46.4539 14.8258L46.3654 29.1802C46.3596 30.1343 46.5556 31.0787 46.9404 31.9517C47.3252 32.8247 47.8901 33.6066 48.5982 34.246L50.395 35.8853C50.4346 35.9197 50.4831 35.942 50.5349 35.9496C50.5868 35.9573 50.6397 35.9501 50.6875 35.9287C50.7354 35.9074 50.7761 35.8729 50.8051 35.8292C50.834 35.7855 50.8498 35.7344 50.8507 35.6821V35.6624Z" fill="#0D9EDA"/>
<path fill-rule="evenodd" clip-rule="evenodd" d="M11.3381 35.6624L11.2168 8.37313C11.2167 8.30284 11.2434 8.23516 11.2916 8.18396C11.3397 8.13276 11.4057 8.1019 11.4758 8.09772C11.544 8.09763 11.6096 8.12341 11.6594 8.16985L13.4726 9.80924C14.1781 10.4421 14.7439 11.215 15.134 12.0788C15.5241 12.9425 15.7299 13.8781 15.7382 14.8258L15.8235 29.1802C15.8292 30.1343 15.6332 31.0787 15.2485 31.9517C14.8637 32.8247 14.2987 33.6066 13.5906 34.246L11.7939 35.8853C11.7543 35.9197 11.7057 35.942 11.6539 35.9496C11.6021 35.9573 11.5491 35.9501 11.5013 35.9287C11.4534 35.9074 11.4127 35.8729 11.3838 35.8292C11.3549 35.7855 11.339 35.7344 11.3381 35.6821V35.6624Z" fill="#13B04B"/>
<path d="M58.1944 16.1898L59.2767 14.6899C59.2767 14.6899 60.4674 15.8496 62.0136 15.8496C62.8486 15.8496 63.6063 15.4166 63.6063 14.5198C63.6063 12.556 58.4263 12.8962 58.4263 9.52533C58.4263 7.70073 60.0035 6.34001 62.1064 6.34001C64.2712 6.34001 65.3845 7.51518 65.3845 7.51518L64.5186 9.13877C64.5186 9.13877 63.4671 8.18008 62.091 8.18008C61.1632 8.18008 60.4364 8.72127 60.4364 9.49441C60.4364 11.4427 65.601 10.9634 65.601 14.4734C65.601 16.2207 64.2712 17.6896 61.9827 17.6896C59.5396 17.6896 58.1944 16.1898 58.1944 16.1898ZM66.8335 11.9684C66.8335 8.78312 69.2457 6.34001 72.4774 6.34001C75.1525 6.34001 76.5287 7.8399 76.5287 7.8399L75.57 9.32432C75.57 9.32432 74.3175 8.16461 72.5702 8.16461C70.2508 8.16461 68.8901 9.89644 68.8901 11.9375C68.8901 14.025 70.2972 15.865 72.5857 15.865C74.4876 15.865 75.771 14.4734 75.771 14.4734L76.8224 15.9114C76.8224 15.9114 75.3071 17.6896 72.5083 17.6896C69.1529 17.6896 66.8335 15.2001 66.8335 11.9684ZM78.6597 17.5041V6.52557H80.6544V11.1798H85.6798V6.52557H87.6745V17.5041H85.6798V12.8962H80.6544V17.5041H78.6597ZM89.6954 11.9375C89.6954 8.79859 92.1385 6.34001 95.3702 6.34001C98.6019 6.34001 101.045 8.79859 101.045 11.9375C101.045 15.1692 98.6019 17.6896 95.3702 17.6896C92.1385 17.6896 89.6954 15.1692 89.6954 11.9375ZM91.7519 11.9375C91.7519 14.1951 93.36 15.865 95.3702 15.865C97.3804 15.865 98.9885 14.1951 98.9885 11.9375C98.9885 9.77274 97.3804 8.16461 95.3702 8.16461C93.36 8.16461 91.7519 9.77274 91.7519 11.9375ZM102.319 11.9375C102.319 8.79859 104.762 6.34001 107.994 6.34001C111.226 6.34001 113.669 8.79859 113.669 11.9375C113.669 15.1692 111.226 17.6896 107.994 17.6896C104.762 17.6896 102.319 15.1692 102.319 11.9375ZM104.376 11.9375C104.376 14.1951 105.984 15.865 107.994 15.865C110.004 15.865 111.612 14.1951 111.612 11.9375C111.612 9.77274 110.004 8.16461 107.994 8.16461C105.984 8.16461 104.376 9.77274 104.376 11.9375ZM115.701 17.5041V6.52557H117.695V15.7877H122.442V17.5041H115.701ZM127.038 11.9375C127.038 8.79859 129.482 6.34001 132.713 6.34001C135.945 6.34001 138.388 8.79859 138.388 11.9375C138.388 15.1692 135.945 17.6896 132.713 17.6896C129.482 17.6896 127.038 15.1692 127.038 11.9375ZM129.095 11.9375C129.095 14.1951 130.703 15.865 132.713 15.865C134.723 15.865 136.332 14.1951 136.332 11.9375C136.332 9.77274 134.723 8.16461 132.713 8.16461C130.703 8.16461 129.095 9.77274 129.095 11.9375ZM140.42 17.5041V6.52557H146.729V8.24193H142.415V11.3499H146.048V13.0663H142.415V17.5041H140.42ZM152.364 17.5041V6.52557H156.601C158.658 6.52557 160.096 7.9636 160.096 10.0975C160.096 12.2313 158.658 13.7157 156.601 13.7157H154.359V17.5041H152.364ZM154.359 11.9839H156.23C157.39 11.9839 158.07 11.2417 158.07 10.0975C158.07 8.96868 157.39 8.24193 156.261 8.24193H154.359V11.9839ZM161.105 11.9375C161.105 8.79859 163.548 6.34001 166.78 6.34001C170.011 6.34001 172.454 8.79859 172.454 11.9375C172.454 15.1692 170.011 17.6896 166.78 17.6896C163.548 17.6896 161.105 15.1692 161.105 11.9375ZM163.161 11.9375C163.161 14.1951 164.769 15.865 166.78 15.865C168.79 15.865 170.398 14.1951 170.398 11.9375C170.398 9.77274 168.79 8.16461 166.78 8.16461C164.769 8.16461 163.161 9.77274 163.161 11.9375ZM174.486 17.5041V6.52557H176.481V15.7877H181.228V17.5041H174.486ZM182.822 17.5041V6.52557H184.816V17.5041H182.822ZM189.866 17.5041V8.24193H186.263V6.52557H195.464V8.24193H191.861V17.5041H189.866ZM196.91 17.5041V6.52557H198.905V17.5041H196.91ZM200.924 11.9684C200.924 8.78312 203.336 6.34001 206.568 6.34001C209.243 6.34001 210.619 7.8399 210.619 7.8399L209.661 9.32432C209.661 9.32432 208.408 8.16461 206.661 8.16461C204.341 8.16461 202.981 9.89644 202.981 11.9375C202.981 14.025 204.388 15.865 206.676 15.865C208.578 15.865 209.862 14.4734 209.862 14.4734L210.913 15.9114C210.913 15.9114 209.398 17.6896 206.599 17.6896C203.244 17.6896 200.924 15.2001 200.924 11.9684ZM211.915 16.1898L212.998 14.6899C212.998 14.6899 214.188 15.8496 215.735 15.8496C216.57 15.8496 217.327 15.4166 217.327 14.5198C217.327 12.556 212.147 12.8962 212.147 9.52533C212.147 7.70073 213.725 6.34001 215.827 6.34001C217.992 6.34001 219.106 7.51518 219.106 7.51518L218.24 9.13877C218.24 9.13877 217.188 8.18008 215.812 8.18008C214.884 8.18008 214.157 8.72127 214.157 9.49441C214.157 11.4427 219.322 10.9634 219.322 14.4734C219.322 16.2207 217.992 17.6896 215.704 17.6896C213.261 17.6896 211.915 16.1898 211.915 16.1898ZM220.183 19.1277L221.219 15.5094H223.152L221.668 19.1277H220.183Z" fill="black"/>
<path d="M59.0293 36.0423V25.0638H63.2661C65.3227 25.0638 66.7607 26.5018 66.7607 28.6357C66.7607 30.7695 65.3227 32.2539 63.2661 32.2539H61.024V36.0423H59.0293ZM61.024 30.5221H62.895C64.0547 30.5221 64.7351 29.7799 64.7351 28.6357C64.7351 27.5069 64.0547 26.7801 62.9259 26.7801H61.024V30.5221ZM67.7698 30.4757C67.7698 27.3368 70.2129 24.8782 73.4446 24.8782C76.6763 24.8782 79.1194 27.3368 79.1194 30.4757C79.1194 33.7074 76.6763 36.2278 73.4446 36.2278C70.2129 36.2278 67.7698 33.7074 67.7698 30.4757ZM69.8263 30.4757C69.8263 32.7333 71.4344 34.4033 73.4446 34.4033C75.4547 34.4033 77.0628 32.7333 77.0628 30.4757C77.0628 28.3109 75.4547 26.7028 73.4446 26.7028C71.4344 26.7028 69.8263 28.3109 69.8263 30.4757ZM81.1513 36.0423V25.0638H83.146V34.3259H87.893V36.0423H81.1513ZM89.4866 36.0423V25.0638H91.4813V36.0423H89.4866ZM93.5007 30.5066C93.5007 27.3213 95.9128 24.8782 99.1446 24.8782C101.82 24.8782 103.196 26.3781 103.196 26.3781L102.237 27.8625C102.237 27.8625 100.985 26.7028 99.2373 26.7028C96.9179 26.7028 95.5572 28.4346 95.5572 30.4757C95.5572 32.5632 96.9643 34.4033 99.2528 34.4033C101.155 34.4033 102.438 33.0116 102.438 33.0116L103.49 34.4496C103.49 34.4496 101.974 36.2278 99.1755 36.2278C95.8201 36.2278 93.5007 33.7384 93.5007 30.5066ZM107.615 36.0423V31.4499L103.966 25.0638H106.224L107.94 28.2955C108.296 28.9758 108.589 29.7799 108.605 29.7644H108.636C108.636 29.7644 108.945 28.9758 109.301 28.2955L111.002 25.0638H113.259L109.61 31.4499V36.0423H107.615ZM117.753 32.9343C117.753 31.7437 118.464 30.5994 119.624 30.1974V30.1665C119.624 30.1665 118.233 29.6253 118.233 27.7697C118.233 25.8214 119.794 24.8782 121.696 24.8782C122.392 24.8782 123.134 25.0638 123.134 25.0638L122.655 26.641C122.655 26.641 122.284 26.5482 121.928 26.5482C121 26.5482 120.243 27.0585 120.243 28.0172C120.243 28.6511 120.598 29.4706 121.913 29.4706H123.66V28.0481H125.624V29.4706H127.046V31.2025H125.624V32.5013C125.624 34.7434 124.155 36.2278 121.681 36.2278C119.299 36.2278 117.753 34.7898 117.753 32.9343ZM119.794 32.8106C119.794 33.692 120.552 34.4033 121.681 34.4033C122.918 34.4033 123.66 33.7229 123.66 32.3931V31.2025H121.804C120.583 31.2025 119.794 31.7437 119.794 32.8106ZM132.082 30.5376C132.082 27.3523 134.479 24.8782 137.742 24.8782C140.432 24.8782 141.824 26.2699 141.824 26.2699L140.834 27.7543C140.834 27.7543 139.659 26.7028 137.912 26.7028C135.453 26.7028 134.139 28.4037 134.139 30.4757C134.139 32.857 135.762 34.4033 137.819 34.4033C139.473 34.4033 140.571 33.259 140.571 33.259V31.9756H138.886V30.2592H142.365V36.0423H140.664V35.5166C140.664 35.2846 140.68 35.0527 140.68 35.0527H140.649C140.649 35.0527 139.504 36.2278 137.463 36.2278C134.572 36.2278 132.082 33.9858 132.082 30.5376ZM143.815 30.4757C143.815 27.3368 146.258 24.8782 149.49 24.8782C152.721 24.8782 155.164 27.3368 155.164 30.4757C155.164 33.7074 152.721 36.2278 149.49 36.2278C146.258 36.2278 143.815 33.7074 143.815 30.4757ZM145.871 30.4757C145.871 32.7333 147.48 34.4033 149.49 34.4033C151.5 34.4033 153.108 32.7333 153.108 30.4757C153.108 28.3109 151.5 26.7028 149.49 26.7028C147.48 26.7028 145.871 28.3109 145.871 30.4757ZM159.734 36.0423L155.729 25.0638H157.878L160.29 32.223C160.507 32.857 160.692 33.8311 160.708 33.8311H160.739C160.754 33.8311 160.94 32.857 161.156 32.223L163.584 25.0638H165.718L161.713 36.0423H159.734ZM167.087 36.0423V25.0638H173.659V26.7801H169.082V29.6562H172.777V31.3726H169.082V34.3259H173.906V36.0423H167.087ZM175.981 36.0423V25.0638H179.522C180.713 25.0638 181.254 25.1566 181.733 25.373C182.831 25.8678 183.527 26.9193 183.527 28.3728C183.527 29.6871 182.831 30.9087 181.671 31.3726V31.4035C181.671 31.4035 181.826 31.5581 182.043 31.9447L184.3 36.0423H182.073L179.893 31.9447H177.976V36.0423H175.981ZM177.976 30.2129H179.77C180.836 30.2129 181.501 29.5789 181.501 28.481C181.501 27.4296 181.053 26.7801 179.491 26.7801H177.976V30.2129ZM186.159 36.0423V25.0638H188.153L192.313 31.4035C192.73 32.0375 193.225 33.1044 193.225 33.1044H193.256C193.256 33.1044 193.148 32.0529 193.148 31.4035V25.0638H195.127V36.0423H193.148L188.988 29.7181C188.571 29.0841 188.076 28.0172 188.076 28.0172H188.045C188.045 28.0172 188.153 29.0686 188.153 29.7181V36.0423H186.159ZM204.293 36.0423L203.365 33.2281H199.515L198.587 36.0423H196.531L200.396 25.0638H202.484L206.349 36.0423H204.293ZM201.463 26.9657H201.432C201.432 26.9657 201.185 28.0481 200.968 28.6666L199.994 31.6045H202.87L201.896 28.6666C201.695 28.0481 201.463 26.9657 201.463 26.9657ZM207.752 36.0423V25.0638H209.747L213.906 31.4035C214.324 32.0375 214.819 33.1044 214.819 33.1044H214.85C214.85 33.1044 214.741 32.0529 214.741 31.4035V25.0638H216.721V36.0423H214.741L210.582 29.7181C210.164 29.0841 209.67 28.0172 209.67 28.0172H209.639C209.639 28.0172 209.747 29.0686 209.747 29.7181V36.0423H207.752ZM218.743 30.5066C218.743 27.3213 221.155 24.8782 224.386 24.8782C227.061 24.8782 228.438 26.3781 228.438 26.3781L227.479 27.8625C227.479 27.8625 226.226 26.7028 224.479 26.7028C222.16 26.7028 220.799 28.4346 220.799 30.4757C220.799 32.5632 222.206 34.4033 224.495 34.4033C226.397 34.4033 227.68 33.0116 227.68 33.0116L228.731 34.4496C228.731 34.4496 227.216 36.2278 224.417 36.2278C221.062 36.2278 218.743 33.7384 218.743 30.5066ZM230.569 36.0423V25.0638H237.14V26.7801H232.563V29.6562H236.259V31.3726H232.563V34.3259H237.388V36.0423H230.569Z" fill="black"/>
<path d="M44.1849 13.0453H18.076C17.6197 13.0453 17.2498 13.4153 17.2498 13.8716V30.2917C17.2498 30.748 17.6197 31.118 18.076 31.118H44.1849C44.6412 31.118 45.0112 30.748 45.0112 30.2917V13.8716C45.0112 13.4153 44.6412 13.0453 44.1849 13.0453Z" fill="url(#paint0_linear_195_665)"/>
<path d="M19.951 24.079L20.5174 23.294C20.5174 23.294 21.1405 23.9009 21.9497 23.9009C22.3867 23.9009 22.7832 23.6744 22.7832 23.205C22.7832 22.1773 20.0724 22.3554 20.0724 20.5913C20.0724 19.6364 20.8977 18.9243 21.9983 18.9243C23.1311 18.9243 23.7138 19.5393 23.7138 19.5393L23.2606 20.389C23.2606 20.389 22.7104 19.8873 21.9902 19.8873C21.5046 19.8873 21.1243 20.1705 21.1243 20.5751C21.1243 21.5947 23.8271 21.3439 23.8271 23.1807C23.8271 24.0951 23.1311 24.8639 21.9335 24.8639C20.655 24.8639 19.951 24.079 19.951 24.079ZM24.8686 24.7668V19.0215H27.0858C28.162 19.0215 28.9146 19.774 28.9146 20.8907C28.9146 22.0074 28.162 22.7842 27.0858 22.7842H25.9125V24.7668H24.8686ZM25.9125 21.8779H26.8916C27.4985 21.8779 27.8545 21.4895 27.8545 20.8907C27.8545 20.3 27.4985 19.9197 26.9078 19.9197H25.9125V21.8779ZM29.8392 24.7668V19.0215H32.0564C33.1326 19.0215 33.8852 19.774 33.8852 20.8907C33.8852 22.0074 33.1326 22.7842 32.0564 22.7842H30.883V24.7668H29.8392ZM30.883 21.8779H31.8622C32.4691 21.8779 32.8251 21.4895 32.8251 20.8907C32.8251 20.3 32.4691 19.9197 31.8784 19.9197H30.883V21.8779ZM34.4213 21.886C34.4213 20.2191 35.6756 18.9243 37.383 18.9243C38.791 18.9243 39.5193 19.6526 39.5193 19.6526L39.0014 20.4295C39.0014 20.4295 38.3864 19.8792 37.472 19.8792C36.1854 19.8792 35.4976 20.7693 35.4976 21.8537C35.4976 23.0998 36.3472 23.909 37.4235 23.909C38.2893 23.909 38.8639 23.3102 38.8639 23.3102V22.6386H37.9818V21.7404H39.8025V24.7668H38.9124V24.4917C38.9124 24.3703 38.9205 24.2489 38.9205 24.2489H38.9043C38.9043 24.2489 38.3055 24.8639 37.2374 24.8639C35.7242 24.8639 34.4213 23.6905 34.4213 21.886Z" fill="white"/>
<defs>
<linearGradient id="paint0_linear_195_665" x1="22.993" y1="21.7195" x2="30.7752" y2="13.6214" gradientUnits="userSpaceOnUse">
<stop stop-color="#1DB766"/>
<stop offset="1" stop-color="#0D9EDA"/>
</linearGradient>
</defs>
</svg>
